<mxfile host="app.diagrams.net" modified="2024-03-02T12:59:07.394Z" agent="Mozilla/5.0 (Windows NT 10.0; Win64; x64; rv:123.0) Gecko/20100101 Firefox/123.0" version="24.0.0" etag="udGdYpHUn8R2fvVfrBHD" type="github">
  <diagram name="Page-1" id="jiyl7WuwmeqqwUfiY4CQ">
    <mxGraphModel>
      <root>
        <mxCell id="0" />
        <mxCell id="1" parent="0" />
      </root>
    </mxGraphModel>
  </diagram>
</mxfile>
